<svg xmlns="http://www.w3.org/2000/svg" xmlns:xlink="http://www.w3.org/1999/xlink" viewBox="0,0,256,256" width="100px" height="100px"><g fill="#54c36b" fill-rule="nonzero" stroke="none" stroke-width="1" stroke-linecap="butt" stroke-linejoin="miter" stroke-miterlimit="10" stroke-dasharray="" stroke-dashoffset="0" font-family="none" font-weight="none" font-size="none" text-anchor="none" style="mix-blend-mode: normal"><g transform="scale(5.12,5.12)"><path d="M25,3c-8.271,0 -15,6.729 -15,15c0,6.167 2.77283,9.13859 4.79883,11.30859c1.278,1.37 2.20117,2.35941 2.20117,3.69141v5h7v-14.58594l-3.70703,-3.70703c-0.391,-0.391 -0.391,-1.02306 0,-1.41406c0.391,-0.391 1.02306,-0.391 1.41406,0l3.29297,3.29297l3.29297,-3.29297c0.391,-0.391 1.02306,-0.391 1.41406,0c0.391,0.391 0.391,1.02306 0,1.41406l-3.70703,3.70703v14.58594h7v-5c0,-1.916 1.10209,-3.06548 2.49609,-4.52148c2.007,-2.096 4.50391,-4.70552 4.50391,-10.47852c0,-8.271 -6.729,-15 -15,-15zM17,40v3c0,1.654 1.346,3 3,3h1.14258c0.44733,1.72017 1.99898,3 3.85742,3c1.85844,0 3.41009,-1.27983 3.85742,-3h1.14258c1.654,0 3,-1.346 3,-3v-3z"></path></g></g></svg>